<svg width="18" height="20" viewBox="0 0 18 20" fill="none" xmlns="http://www.w3.org/2000/svg">
<path d="M1.3125 7.68754L9 1.70837L16.6875 7.68754V17.0834C16.6875 17.5365 16.5075 17.971 16.1871 18.2913C15.8668 18.6117 15.4322 18.7917 14.9792 18.7917H3.02083C2.56776 18.7917 2.13323 18.6117 1.81286 18.2913C1.49248 17.971 1.3125 17.5365 1.3125 17.0834V7.68754Z" stroke="#66CA98" stroke-width="2" stroke-linecap="round" stroke-linejoin="round"/>
</svg>
<svg width="18" height="20" viewBox="0 0 18 20" fill="none" xmlns="http://www.w3.org/2000/svg">
<path d="M1.3125 7.68754L9 1.70837L16.6875 7.68754V17.0834C16.6875 17.5365 16.5075 17.971 16.1871 18.2913C15.8668 18.6117 15.4322 18.7917 14.9792 18.7917H3.02083C2.56776 18.7917 2.13323 18.6117 1.81286 18.2913C1.49248 17.971 1.3125 17.5365 1.3125 17.0834V7.68754Z" stroke="#66CA98" stroke-width="2" stroke-linecap="round" stroke-linejoin="round"/>
</svg>
